<svg width="50" height="50" viewBox="0 0 50 50" fill="none" xmlns="http://www.w3.org/2000/svg">
<path d="M0 25C0 11.1929 11.1929 0 25 0C38.8071 0 50 11.1929 50 25C50 38.8071 38.8071 50 25 50C11.1929 50 0 38.8071 0 25Z" fill="#AA4141"/>
<path d="M20.8955 40L20.2985 35.2C19.9751 35.075 19.6704 34.925 19.3843 34.75C19.0983 34.575 18.8184 34.3875 18.5448 34.1875L14.1045 36.0625L10 28.9375L13.8433 26.0125C13.8184 25.8375 13.806 25.6688 13.806 25.5063V24.4938C13.806 24.3313 13.8184 24.1625 13.8433 23.9875L10 21.0625L14.1045 13.9375L18.5448 15.8125C18.8184 15.6125 19.1045 15.425 19.403 15.25C19.7015 15.075 20 14.925 20.2985 14.8L20.8955 10H29.1045L29.7015 14.8C30.0249 14.925 30.3296 15.075 30.6157 15.25C30.9017 15.425 31.1816 15.6125 31.4552 15.8125L35.8955 13.9375L40 21.0625L36.1567 23.9875C36.1816 24.1625 36.194 24.3313 36.194 24.4938V25.5063C36.194 25.6688 36.1692 25.8375 36.1194 26.0125L39.9627 28.9375L35.8582 36.0625L31.4552 34.1875C31.1816 34.3875 30.8955 34.575 30.597 34.75C30.2985 34.925 30 35.075 29.7015 35.2L29.1045 40H20.8955ZM23.5075 37H26.4552L26.9776 33.025C27.7488 32.825 28.4639 32.5312 29.1231 32.1438C29.7823 31.7563 30.3856 31.2875 30.9328 30.7375L34.6269 32.275L36.0821 29.725L32.8731 27.2875C32.9975 26.9375 33.0846 26.5688 33.1343 26.1813C33.1841 25.7938 33.209 25.4 33.209 25C33.209 24.6 33.1841 24.2063 33.1343 23.8188C33.0846 23.4313 32.9975 23.0625 32.8731 22.7125L36.0821 20.275L34.6269 17.725L30.9328 19.3C30.3856 18.725 29.7823 18.2438 29.1231 17.8563C28.4639 17.4688 27.7488 17.175 26.9776 16.975L26.4925 13H23.5448L23.0224 16.975C22.2512 17.175 21.5361 17.4688 20.8769 17.8563C20.2177 18.2438 19.6144 18.7125 19.0672 19.2625L15.3731 17.725L13.9179 20.275L17.1269 22.675C17.0025 23.05 16.9154 23.425 16.8657 23.8C16.8159 24.175 16.791 24.575 16.791 25C16.791 25.4 16.8159 25.7875 16.8657 26.1625C16.9154 26.5375 17.0025 26.9125 17.1269 27.2875L13.9179 29.725L15.3731 32.275L19.0672 30.7C19.6144 31.275 20.2177 31.7563 20.8769 32.1438C21.5361 32.5312 22.2512 32.825 23.0224 33.025L23.5075 37ZM25.0746 30.25C26.5174 30.25 27.7488 29.7375 28.7687 28.7125C29.7886 27.6875 30.2985 26.45 30.2985 25C30.2985 23.55 29.7886 22.3125 28.7687 21.2875C27.7488 20.2625 26.5174 19.75 25.0746 19.75C23.607 19.75 22.3694 20.2625 21.3619 21.2875C20.3545 22.3125 19.8507 23.55 19.8507 25C19.8507 26.45 20.3545 27.6875 21.3619 28.7125C22.3694 29.7375 23.607 30.25 25.0746 30.25Z" fill="#F7F7F7"/>
</svg>
