<svg width="50" height="50" viewBox="0 0 50 50" fill="none" xmlns="http://www.w3.org/2000/svg">
<path d="M0 25C0 11.1929 11.1929 0 25 0V0C38.8071 0 50 11.1929 50 25V25C50 38.8071 38.8071 50 25 50V50C11.1929 50 0 38.8071 0 25V25Z" fill="#AA4141"/>
<path d="M11.25 35V31.5C11.25 30.7917 11.4323 30.1406 11.7969 29.5469C12.1615 28.9531 12.6458 28.5 13.25 28.1875C14.5417 27.5417 15.8542 27.0573 17.1875 26.7344C18.5208 26.4115 19.875 26.25 21.25 26.25C22.625 26.25 23.9792 26.4115 25.3125 26.7344C26.6458 27.0573 27.9583 27.5417 29.25 28.1875C29.8542 28.5 30.3385 28.9531 30.7031 29.5469C31.0677 30.1406 31.25 30.7917 31.25 31.5V35H11.25ZM33.75 35V31.25C33.75 30.3333 33.4948 29.4531 32.9844 28.6094C32.474 27.7656 31.75 27.0417 30.8125 26.4375C31.875 26.5625 32.875 26.776 33.8125 27.0781C34.75 27.3802 35.625 27.75 36.4375 28.1875C37.1875 28.6042 37.7604 29.0677 38.1562 29.5781C38.5521 30.0885 38.75 30.6458 38.75 31.25V35H33.75ZM17.7188 23.5312C16.7396 22.5521 16.25 21.375 16.25 20C16.25 18.625 16.7396 17.4479 17.7188 16.4688C18.6979 15.4896 19.875 15 21.25 15C22.625 15 23.8021 15.4896 24.7812 16.4688C25.7604 17.4479 26.25 18.625 26.25 20C26.25 21.375 25.7604 22.5521 24.7812 23.5312C23.8021 24.5104 22.625 25 21.25 25C19.875 25 18.6979 24.5104 17.7188 23.5312ZM32.2812 23.5312C31.3021 24.5104 30.125 25 28.75 25C28.5208 25 28.2292 24.974 27.875 24.9219C27.5208 24.8698 27.2292 24.8125 27 24.75C27.5625 24.0833 27.9948 23.3438 28.2969 22.5312C28.599 21.7188 28.75 20.875 28.75 20C28.75 19.125 28.599 18.2812 28.2969 17.4688C27.9948 16.6562 27.5625 15.9167 27 15.25C27.2917 15.1458 27.5833 15.0781 27.875 15.0469C28.1667 15.0156 28.4583 15 28.75 15C30.125 15 31.3021 15.4896 32.2812 16.4688C33.2604 17.4479 33.75 18.625 33.75 20C33.75 21.375 33.2604 22.5521 32.2812 23.5312ZM13.75 32.5H28.75V31.5C28.75 31.2708 28.6927 31.0625 28.5781 30.875C28.4635 30.6875 28.3125 30.5417 28.125 30.4375C27 29.875 25.8646 29.4531 24.7188 29.1719C23.5729 28.8906 22.4167 28.75 21.25 28.75C20.0833 28.75 18.9271 28.8906 17.7812 29.1719C16.6354 29.4531 15.5 29.875 14.375 30.4375C14.1875 30.5417 14.0365 30.6875 13.9219 30.875C13.8073 31.0625 13.75 31.2708 13.75 31.5V32.5ZM23.0156 21.7656C23.5052 21.276 23.75 20.6875 23.75 20C23.75 19.3125 23.5052 18.724 23.0156 18.2344C22.526 17.7448 21.9375 17.5 21.25 17.5C20.5625 17.5 19.974 17.7448 19.4844 18.2344C18.9948 18.724 18.75 19.3125 18.75 20C18.75 20.6875 18.9948 21.276 19.4844 21.7656C19.974 22.2552 20.5625 22.5 21.25 22.5C21.9375 22.5 22.526 22.2552 23.0156 21.7656Z" fill="#F7F7F7"/>
</svg>
